<svg width="32px" height="32px" viewBox="0 0 0.96 0.96" fill="none" xmlns="http://www.w3.org/2000/svg"><path d="M0.28 0.16a0.08 0.08 0 0 1 0.08 -0.08h0.24a0.08 0.08 0 0 1 0.08 0.08v0.08h0.16a0.04 0.04 0 1 1 0 0.08h-0.043l-0.035 0.486A0.08 0.08 0 0 1 0.683 0.88H0.277a0.08 0.08 0 0 1 -0.08 -0.074L0.163 0.32H0.12a0.04 0.04 0 0 1 0 -0.08h0.16zm0.08 0.08h0.24V0.16H0.36zM0.243 0.32l0.034 0.48H0.683l0.034 -0.48zM0.4 0.4a0.04 0.04 0 0 1 0.04 0.04v0.24a0.04 0.04 0 1 1 -0.08 0v-0.24a0.04 0.04 0 0 1 0.04 -0.04m0.16 0a0.04 0.04 0 0 1 0.04 0.04v0.24a0.04 0.04 0 1 1 -0.08 0v-0.24a0.04 0.04 0 0 1 0.04 -0.04" fill="#000"/></svg>