<svg fill="#000000" width="32px" height="32px" viewBox="0 0 20.48 20.48" xmlns="http://www.w3.org/2000/svg"><path d="m16.64 17.92 -3.88 -3.88q-1.68 1.28 -3.8 1.28 -1.72 0 -3.2 -0.84 -1.48 -0.88 -2.32 -2.36 -0.88 -1.48 -0.88 -3.2t0.88 -3.2q0.84 -1.48 2.32 -2.32 1.48 -0.88 3.2 -0.88t3.2 0.88q1.48 0.84 2.36 2.32 0.84 1.48 0.84 3.2 0 2.16 -1.32 3.84l3.88 3.88zM8.92 13.44q1.88 0 3.2 -1.32 1.28 -1.32 1.28 -3.16 0 -1.88 -1.28 -3.16 -1.32 -1.32 -3.2 -1.32 -1.84 0 -3.16 1.32 -1.32 1.28 -1.32 3.16 0 1.84 1.32 3.16t3.16 1.32"/></svg>