<svg fill="#ff3300" width="32px" height="32px" viewBox="0 0 1.44 1.44" version="1.1" preserveAspectRatio="xMidYMid meet" xmlns="http://www.w3.org/2000/svg" xmlns:xlink="http://www.w3.org/1999/xlink"><path d="M0.72 0.08a0.64 0.64 0 1 0 0.64 0.64A0.64 0.64 0 0 0 0.72 0.08m0.32 0.884a0.056 0.056 0 0 1 -0.08 0.08l-0.24 -0.24 -0.24 0.241a0.056 0.056 0 1 1 -0.08 -0.08l0.24 -0.242 -0.247 -0.249a0.056 0.056 0 1 1 0.08 -0.08L0.72 0.644l0.247 -0.247a0.056 0.056 0 1 1 0.08 0.08L0.8 0.723Z"/><path x="0" y="0" width="36" height="36" fill-opacity="0" d="M0 0H1.44V1.44H0V0z"/></svg>