<svg width="64px" height="64px" viewBox="0 0 15.36 15.36" xmlns="http://www.w3.org/2000/svg" fill="none"><g><path stroke="#000000" stroke-linecap="round" stroke-linejoin="round" stroke-width="0.96" d="M7.68 1.76v2.4m1.92 -2.4v2.88m-3.36 6.08v1.92a0.96 0.96 0 0 0 0.96 0.96h0.96c0.255 0 0.499 -0.101 0.679 -0.281A0.96 0.96 0 0 0 9.12 12.64v-1.92M3.84 7.68v1.6a0.96 0.96 0 0 0 0.96 0.96h5.76c0.255 0 0.499 -0.101 0.679 -0.281A0.96 0.96 0 0 0 11.52 9.28V7.692zm0 0V3.68a1.92 1.92 0 0 1 1.92 -1.92h5.76v5.92z"/></g></svg>